<svg width="16" height="16" viewBox="0 0 16 16" fill="none" xmlns="http://www.w3.org/2000/svg">
<path d="M7.63804 5.38001L2.32804 10.953C2.23939 11.046 2.18994 11.1695 2.18994 11.298C2.18994 11.4265 2.23939 11.55 2.32804 11.643L2.33404 11.649C2.37701 11.6943 2.42874 11.7303 2.48607 11.7549C2.5434 11.7795 2.60514 11.7922 2.66754 11.7922C2.72993 11.7922 2.79167 11.7795 2.849 11.7549C2.90634 11.7303 2.95806 11.6943 3.00104 11.649L8.00104 6.40101L12.999 11.649C13.042 11.6943 13.0937 11.7303 13.1511 11.7549C13.2084 11.7795 13.2701 11.7922 13.3325 11.7922C13.3949 11.7922 13.4567 11.7795 13.514 11.7549C13.5713 11.7303 13.6231 11.6943 13.666 11.649L13.672 11.643C13.7607 11.55 13.8101 11.4265 13.8101 11.298C13.8101 11.1695 13.7607 11.046 13.672 10.953L8.36204 5.38001C8.31534 5.331 8.25918 5.29198 8.19695 5.26532C8.13472 5.23866 8.06773 5.22491 8.00004 5.22491C7.93234 5.22491 7.86535 5.23866 7.80312 5.26532C7.7409 5.29198 7.68473 5.331 7.63804 5.38001Z" fill="#FFFCF2"/>
</svg>
