<svg width="22" height="22" viewBox="0 0 22 22" fill="none" xmlns="http://www.w3.org/2000/svg">
<path fill-rule="evenodd" clip-rule="evenodd" d="M8.00587 1.02128C7.98471 0.976807 7.93416 0.954539 7.88712 0.969122C6.09964 1.52322 4.51651 2.54195 3.27891 3.88414C3.23889 3.92755 3.24577 3.99593 3.29276 4.03168C4.51815 4.96385 5.49022 6.21187 6.0876 7.65437C6.10601 7.69882 6.15316 7.72434 6.20036 7.71506C7.38553 7.48216 8.60105 7.33385 9.84035 7.27669C9.90019 7.27393 9.94445 7.21971 9.93464 7.16062C9.57541 4.99878 8.91792 2.93776 8.00587 1.02128ZM2.22301 5.23472C2.25424 5.18726 2.31888 5.17595 2.36422 5.21018C3.31533 5.92823 4.08391 6.87522 4.58803 7.96919C4.61374 8.02499 4.58242 8.09007 4.52312 8.10611C3.22622 8.45681 1.97154 8.91029 0.768362 9.45725C0.696273 9.49003 0.616247 9.43049 0.628576 9.35227C0.865327 7.85015 1.42058 6.45386 2.22301 5.23472ZM5.11674 9.60925C5.10584 9.55313 5.04958 9.51837 4.99434 9.5331C3.44648 9.9458 1.96216 10.5142 0.55919 11.2205C0.524786 11.2379 0.503461 11.2736 0.504585 11.3121C0.563271 13.3227 1.18721 15.1916 2.22301 16.7653C2.25424 16.8127 2.3189 16.824 2.36424 16.7898C4.11708 15.4665 5.25 13.3655 5.25 11C5.25 10.5243 5.20419 10.0594 5.11674 9.60925ZM19.4777 4.96717C19.5223 4.93743 19.5823 4.94885 19.6129 4.99274C20.5039 6.26775 21.1189 7.74979 21.3715 9.35228C21.3838 9.4305 21.3038 9.49003 21.2317 9.45726C19.8919 8.84816 18.4882 8.355 17.0334 7.99059C16.9724 7.97531 16.9401 7.90829 16.9674 7.85165C17.533 6.68033 18.4043 5.6843 19.4777 4.96717ZM18.5148 3.66666C18.558 3.71092 18.5502 3.78331 18.4995 3.81869C17.1613 4.75223 16.0963 6.05025 15.4484 7.56884C15.4299 7.61205 15.3842 7.63706 15.3379 7.62888C14.1053 7.41098 12.8413 7.28429 11.5529 7.25606C11.5042 7.25499 11.4632 7.21908 11.4557 7.17092C11.1044 4.90884 10.4468 2.74807 9.52651 0.732357C9.49874 0.671521 9.53697 0.600902 9.60327 0.59209C10.0602 0.531351 10.5265 0.5 11 0.5C13.9457 0.5 16.608 1.71296 18.5148 3.66666ZM19.4777 17.0328C19.5222 17.0626 19.5823 17.0512 19.6129 17.0073C20.7468 15.3847 21.4338 13.4268 21.4955 11.3121C21.4966 11.2736 21.4753 11.2379 21.4409 11.2205C19.8943 10.4419 18.2488 9.83086 16.5283 9.41125C16.4742 9.39805 16.4198 9.43182 16.4083 9.48629C16.3046 9.9745 16.25 10.4809 16.25 11C16.25 13.516 17.5317 15.7327 19.4777 17.0328ZM14.8564 9.06834C14.9128 9.07776 14.9495 9.13263 14.9377 9.18858C14.8147 9.77303 14.75 10.379 14.75 11C14.75 13.9732 16.2329 16.6001 18.4995 18.1813C18.5502 18.2167 18.558 18.2891 18.5148 18.3333C16.608 20.287 13.9457 21.5 11 21.5C10.5265 21.5 10.0602 21.4686 9.60327 21.4079C9.53697 21.3991 9.49873 21.3285 9.5265 21.2677C10.9545 18.1399 11.7502 14.6629 11.7502 11C11.7502 10.2828 11.7196 9.57267 11.6599 8.87092C11.6548 8.81128 11.7026 8.76034 11.7624 8.76227C12.8129 8.79611 13.8457 8.89962 14.8564 9.06834ZM10.2502 11C10.2502 10.2783 10.2173 9.56426 10.1529 8.85933C10.1481 8.8066 10.1028 8.76693 10.0499 8.76906C8.89603 8.81544 7.76378 8.94592 6.65913 9.15453C6.60417 9.16491 6.5687 9.21853 6.57968 9.27338C6.6914 9.83157 6.75 10.4089 6.75 11C6.75 13.8434 5.39371 16.3701 3.29277 17.9683C3.24578 18.0041 3.23889 18.0724 3.27891 18.1159C4.51651 19.458 6.09964 20.4768 7.88712 21.0309C7.93416 21.0455 7.9847 21.0232 8.00587 20.9787C9.44483 17.955 10.2502 14.5716 10.2502 11Z"/>
</svg>
