<svg width="22" height="22" viewBox="0 0 22 22" fill="none" xmlns="http://www.w3.org/2000/svg">
<g clip-path="url(#clip0_6_4)">
<path fill-rule="evenodd" clip-rule="evenodd" d="M8.00523 1.02128C7.98407 0.976807 7.93352 0.954539 7.88648 0.969122C6.099 1.52322 4.51587 2.54195 3.27827 3.88414C3.23825 3.92755 3.24513 3.99593 3.29212 4.03168C4.51751 4.96385 5.48958 6.21187 6.08696 7.65437C6.10537 7.69882 6.15252 7.72434 6.19972 7.71506C7.38489 7.48216 8.60041 7.33385 9.83971 7.27669C9.89955 7.27393 9.94381 7.21971 9.934 7.16062C9.57477 4.99878 8.91728 2.93776 8.00523 1.02128ZM2.22237 5.23472C2.2536 5.18726 2.31824 5.17595 2.36358 5.21018C3.31469 5.92823 4.08327 6.87522 4.58739 7.96919C4.6131 8.02499 4.58178 8.09007 4.52248 8.10611C3.22558 8.45681 1.9709 8.91029 0.767726 9.45725C0.695637 9.49003 0.615611 9.43049 0.62794 9.35227C0.864691 7.85015 1.41994 6.45386 2.22237 5.23472ZM5.1161 9.60925C5.1052 9.55313 5.04894 9.51837 4.9937 9.5331C3.44584 9.9458 1.96152 10.5142 0.558554 11.2205C0.52415 11.2379 0.502825 11.2736 0.503949 11.3121C0.562635 13.3227 1.18657 15.1916 2.22237 16.7653C2.2536 16.8127 2.31826 16.824 2.3636 16.7898C4.11644 15.4665 5.24936 13.3655 5.24936 11C5.24936 10.5243 5.20355 10.0594 5.1161 9.60925ZM19.4771 4.96717C19.5217 4.93743 19.5817 4.94885 19.6123 4.99274C20.5033 6.26775 21.1183 7.74979 21.3709 9.35228C21.3832 9.4305 21.3032 9.49003 21.2311 9.45726C19.8913 8.84816 18.4876 8.355 17.0328 7.99059C16.9718 7.97531 16.9395 7.90829 16.9668 7.85165C17.5324 6.68033 18.4037 5.6843 19.4771 4.96717ZM18.5142 3.66666C18.5574 3.71092 18.5496 3.78331 18.4989 3.81869C17.1607 4.75223 16.0957 6.05025 15.4478 7.56884C15.4293 7.61205 15.3836 7.63706 15.3373 7.62888C14.1047 7.41098 12.8407 7.28429 11.5523 7.25606C11.5036 7.25499 11.4626 7.21908 11.4551 7.17092C11.1038 4.90884 10.4462 2.74807 9.52587 0.732357C9.4981 0.671521 9.53633 0.600902 9.60263 0.59209C10.0596 0.531351 10.5259 0.5 10.9994 0.5C13.9451 0.5 16.6074 1.71296 18.5142 3.66666ZM19.4771 17.0328C19.5216 17.0626 19.5817 17.0512 19.6123 17.0073C20.7462 15.3847 21.4332 13.4268 21.4949 11.3121C21.496 11.2736 21.4747 11.2379 21.4403 11.2205C19.8937 10.4419 18.2482 9.83086 16.5277 9.41125C16.4736 9.39805 16.4192 9.43182 16.4077 9.48629C16.304 9.9745 16.2494 10.4809 16.2494 11C16.2494 13.516 17.5311 15.7327 19.4771 17.0328ZM14.8558 9.06834C14.9122 9.07776 14.9489 9.13263 14.9371 9.18858C14.8141 9.77303 14.7494 10.379 14.7494 11C14.7494 13.9732 16.2323 16.6001 18.4989 18.1813C18.5496 18.2167 18.5574 18.2891 18.5142 18.3333C16.6074 20.287 13.9451 21.5 10.9994 21.5C10.5259 21.5 10.0596 21.4686 9.60263 21.4079C9.53633 21.3991 9.49809 21.3285 9.52586 21.2677C10.9539 18.1399 11.7496 14.6629 11.7496 11C11.7496 10.2828 11.719 9.57267 11.6593 8.87092C11.6542 8.81128 11.702 8.76034 11.7618 8.76227C12.8123 8.79611 13.8451 8.89962 14.8558 9.06834ZM10.2496 11C10.2496 10.2783 10.2167 9.56426 10.1523 8.85933C10.1475 8.8066 10.1022 8.76693 10.0493 8.76906C8.89539 8.81544 7.76314 8.94592 6.65849 9.15453C6.60353 9.16491 6.56806 9.21853 6.57904 9.27338C6.69076 9.83157 6.74936 10.4089 6.74936 11C6.74936 13.8434 5.39307 16.3701 3.29213 17.9683C3.24514 18.0041 3.23825 18.0724 3.27827 18.1159C4.51587 19.458 6.099 20.4768 7.88648 21.0309C7.93352 21.0455 7.98406 21.0232 8.00523 20.9787C9.44419 17.955 10.2496 14.5716 10.2496 11Z" fill="#FFFCF2"/>
</g>
<defs>
<clipPath id="clip0_6_4">
<rect width="22" height="22" fill="white"/>
</clipPath>
</defs>
</svg>
