<svg width="16" height="16" viewBox="0 0 16 16" fill="none" xmlns="http://www.w3.org/2000/svg">
<path d="M9.56001 11.8467L10.5 10.9067L13.3333 13.72L12.3733 14.6667L9.56001 11.8467ZM12.3333 1.33334C12.9522 1.33334 13.5457 1.57918 13.9833 2.01676C14.4208 2.45435 14.6667 3.04784 14.6667 3.66668C14.6667 4.28552 14.4208 4.87901 13.9833 5.31659C13.5457 5.75418 12.9522 6.00001 12.3333 6.00001C11.7145 6.00001 11.121 5.75418 10.6834 5.31659C10.2458 4.87901 10 4.28552 10 3.66668C10 3.04784 10.2458 2.45435 10.6834 2.01676C11.121 1.57918 11.7145 1.33334 12.3333 1.33334ZM1.49334 4.74001L3.38001 2.85334C3.50718 2.72835 3.67836 2.65831 3.85667 2.65831C4.03499 2.65831 4.20617 2.72835 4.33334 2.85334L9.98001 8.51334C10.24 8.77334 10.24 9.19334 9.98001 9.45334L8.09334 11.3333C8.03183 11.3966 7.95824 11.447 7.87694 11.4813C7.79564 11.5157 7.70827 11.5334 7.62001 11.5334C7.53174 11.5334 7.44437 11.5157 7.36307 11.4813C7.28177 11.447 7.20819 11.3966 7.14667 11.3333L1.49334 5.68668C1.23334 5.42001 1.23334 5.00001 1.49334 4.74001Z" fill="#FFFCF2"/>
</svg>
