<svg width="16" height="16" viewBox="0 0 16 16" fill="none" xmlns="http://www.w3.org/2000/svg">
<path d="M6.66659 2V3.33333C8.33325 3.33333 9.26659 3.36667 9.81325 3.60667C10.1733 3.76667 10.4866 4.14 10.8333 4.66667H3.33325V6H13.0799L12.5933 5.03333C11.9066 3.66667 11.3066 2.81333 10.3533 2.39333C9.39992 1.96666 8.33325 2 6.66659 2ZM3.99992 7.33333C2.51992 7.33333 1.33325 8.52 1.33325 10V12C1.33325 13.48 2.51992 14.6667 3.99992 14.6667H11.9999C13.4799 14.6667 14.6666 13.48 14.6666 12V10C14.6666 8.52 13.4799 7.33333 11.9999 7.33333H3.99992Z" fill="#FFFCF2"/>
</svg>
