<svg width="16" height="16" viewBox="0 0 16 16" fill="none" xmlns="http://www.w3.org/2000/svg">
<g clip-path="url(#clip0_261_69)">
<path fill-rule="evenodd" clip-rule="evenodd" d="M3.96463 2.5783V4.03544C3.96564 4.23875 4.02689 4.4372 4.14063 4.60572C4.32348 4.87087 4.62748 5.04458 4.97263 5.04458H11.0263C11.1903 5.04479 11.3518 5.00491 11.4968 4.92842C11.6418 4.85193 11.7659 4.74115 11.8583 4.60572C11.9727 4.43701 12.0344 4.23812 12.0355 4.0343V1.47201C12.0346 1.4398 12.0292 1.40786 12.0195 1.37715C12.006 1.33892 11.9845 1.30401 11.9564 1.27473C11.9283 1.24545 11.8944 1.22248 11.8568 1.20735C11.8191 1.19221 11.7787 1.18526 11.7382 1.18695C11.6977 1.18864 11.658 1.19894 11.6218 1.21715L11.1098 1.47201L10.6309 1.71201L10.6069 1.72344L10.0172 2.0183L8.2012 0.202295C8.14764 0.148906 8.07511 0.118927 7.99948 0.118927C7.92386 0.118927 7.85133 0.148906 7.79777 0.202295L5.98177 2.01715L5.3932 1.72344L5.36806 1.71087L4.88806 1.47087L4.3772 1.21601C4.33372 1.19447 4.28548 1.18435 4.23702 1.18661C4.18855 1.18887 4.14146 1.20344 4.10018 1.22894C4.05891 1.25444 4.0248 1.29003 4.00109 1.33235C3.97737 1.37468 3.96482 1.42235 3.96463 1.47087V2.5783ZM2.60463 4.61715C2.33648 4.64386 2.08093 4.74412 1.86616 4.90687C1.65138 5.06961 1.48573 5.28852 1.38748 5.53944C0.989769 6.57487 0.640055 7.96915 0.390912 9.2743C0.144055 10.5726 -0.0113735 11.8389 0.00119788 12.6149C0.0149122 13.4914 0.149769 14.304 0.584055 14.9029C1.05034 15.5452 1.77491 15.8309 2.69377 15.8309C2.78265 15.8309 2.87031 15.8101 2.94977 15.7703C3.64006 15.424 4.22748 14.76 4.71777 14.1532C4.86558 13.9695 5.00615 13.7916 5.13948 13.6194C5.4252 13.2537 5.68463 12.9223 5.94406 12.6469H10.0469C10.2812 12.9109 10.5178 13.2297 10.7783 13.584C10.9117 13.7638 11.0526 13.9512 11.2012 14.1463C11.6675 14.7554 12.2378 15.432 12.9143 15.7692C12.9934 15.8092 13.0806 15.8303 13.1692 15.8309C14.0869 15.8309 14.8321 15.5474 15.3315 14.9246C15.8092 14.328 15.9852 13.5143 15.9989 12.616C16.0115 11.8446 15.8583 10.5932 15.6149 9.30515C15.3703 8.01144 15.0241 6.6263 14.6321 5.58858C14.5322 5.33017 14.3642 5.10366 14.1458 4.9332C13.9275 4.76273 13.667 4.65469 13.3921 4.62058C13.2617 5.14934 12.9577 5.6191 12.5288 5.95474C12.1 6.29038 11.5709 6.47251 11.0263 6.47201H4.97148C4.42663 6.47152 3.89763 6.2886 3.46886 5.95241C3.04009 5.61623 2.73509 5.14615 2.60463 4.61715ZM6.41148 9.84344C6.41148 10.2396 6.25411 10.6195 5.97399 10.8997C5.69386 11.1798 5.31393 11.3372 4.91777 11.3372C4.52161 11.3372 4.14168 11.1798 3.86155 10.8997C3.58143 10.6195 3.42406 10.2396 3.42406 9.84344C3.43481 9.45458 3.59685 9.08527 3.87569 8.81403C4.15454 8.54279 4.52819 8.39104 4.9172 8.39104C5.3062 8.39104 5.67986 8.54279 5.95871 8.81403C6.23755 9.08527 6.40072 9.45458 6.41148 9.84344ZM11.0846 11.3372C11.4808 11.3372 11.8607 11.1798 12.1408 10.8997C12.421 10.6195 12.5783 10.2396 12.5783 9.84344C12.5783 9.44728 12.421 9.06735 12.1408 8.78722C11.8607 8.5071 11.4808 8.34972 11.0846 8.34972C10.6885 8.34972 10.3085 8.5071 10.0284 8.78722C9.74829 9.06735 9.59091 9.44728 9.59091 9.84344C9.59091 10.2396 9.74829 10.6195 10.0284 10.8997C10.3085 11.1798 10.6885 11.3372 11.0846 11.3372Z" fill="#FFFCF2"/>
</g>
<defs>
<clipPath id="clip0_261_69">
<rect width="16" height="16" fill="white"/>
</clipPath>
</defs>
</svg>
