<svg width="16" height="16" viewBox="0 0 16 16" fill="none" xmlns="http://www.w3.org/2000/svg">
<path d="M16 3L13 0C12.3369 0.662927 11.4376 1.03534 10.5 1.03534C9.56236 1.03534 8.6631 0.662927 8 0L6 2L9 5L5 9L2 6L0 8C0.662927 8.6631 1.03534 9.56236 1.03534 10.5C1.03534 11.4376 0.662927 12.3369 0 13L3 16C3.6631 15.3371 4.56236 14.9647 5.5 14.9647C6.43764 14.9647 7.3369 15.3371 8 16L10 14L7 11L11 7L14 10L16 8C15.3371 7.3369 14.9647 6.43764 14.9647 5.5C14.9647 4.56236 15.3371 3.6631 16 3Z" fill="#FFFCF2"/>
</svg>
