<svg width="22" height="22" viewBox="0 0 22 22" fill="none" xmlns="http://www.w3.org/2000/svg">
<path fill-rule="evenodd" clip-rule="evenodd" d="M8.26816 0.858932C5.76181 1.53246 3.62592 3.1104 2.23191 5.22135L4.30267 5.78223L8.26816 2.90114V0.858932ZM1.47718 6.57097C0.850216 7.91673 0.500122 9.41748 0.500122 11C0.500122 12.1358 0.68047 13.2295 1.01409 14.254L3.38372 14.5031L5.36403 11.8307L3.86523 7.2178L1.47718 6.57097ZM3.64458 18.4931C2.85614 17.719 2.18934 16.8215 1.67547 15.8318L3.11098 15.9827L3.64458 18.4931ZM5.48493 19.9366C7.08772 20.9279 8.97711 21.5 11.0001 21.5C11.5891 21.5 12.1668 21.4515 12.7293 21.3583C12.5423 21.1816 12.4557 20.917 12.5109 20.6573L13.6118 15.4781L11.4719 12.7166H6.5745L4.53522 15.4686L5.48493 19.9366ZM19.9821 16.4412C18.7788 18.4233 16.9379 19.9754 14.744 20.8129L14.0914 20.4361L15.0381 15.9827L19.566 15.5068L19.9821 16.4412ZM20.8384 14.6767C21.2662 13.5324 21.5001 12.2935 21.5001 11C21.5001 10.1375 21.3961 9.29937 21.2 8.49734L17.3216 6.36435L14.1711 7.21778L12.6755 11.8209L14.7547 14.5042L19.9512 13.958C20.2743 13.9241 20.5826 14.1021 20.7147 14.3989L20.8384 14.6767ZM18.8222 3.99525C19.456 4.70253 19.9953 5.49626 20.4202 6.35658L18.3524 5.21935L18.8222 3.99525ZM17.647 2.87129C15.8367 1.38923 13.5222 0.5 11.0001 0.5C10.5834 0.5 10.1723 0.524282 9.76816 0.571508V2.90114L13.7336 5.78223L16.854 4.93695L17.647 2.87129ZM5.33477 6.88647L9.01816 4.21033L12.7016 6.88647L11.2946 11.2166H6.7417L5.33477 6.88647Z"/>
</svg>
