<svg width="24" height="24" viewBox="0 0 24 24" fill="none" xmlns="http://www.w3.org/2000/svg">
<path fill-rule="evenodd" clip-rule="evenodd" d="M21 3.00004C21.7313 3.73127 22.4166 6.20426 22.1261 9.20429C18.2678 8.79804 15.202 5.73231 14.7958 1.874C17.7958 1.58343 20.2688 2.2688 21 3.00004ZM13.3107 2.09414C13.8144 6.60473 17.3953 10.1857 21.9059 10.6893C21.4198 13.1152 20.261 15.7391 18 18C15.7391 20.261 13.1152 21.4198 10.6893 21.9059C10.1856 17.3953 6.60473 13.8144 2.09414 13.3107C2.58031 10.8849 3.73909 8.26099 6.00004 6.00004C8.26099 3.73909 10.8849 2.58031 13.3107 2.09414ZM9.20429 22.1261C6.20425 22.4166 3.73127 21.7313 3.00004 21C2.2688 20.2688 1.58343 17.7958 1.874 14.7958C5.73231 15.202 8.79804 18.2678 9.20429 22.1261ZM15.0304 8.96971C15.3233 9.2626 15.3233 9.73747 15.0304 10.0304L14.3107 10.75L15.5304 11.9697C15.8233 12.2626 15.8233 12.7375 15.5304 13.0304C15.2375 13.3233 14.7626 13.3233 14.4697 13.0304L13.25 11.8107L11.8107 13.25L13.0304 14.4697C13.3233 14.7626 13.3233 15.2375 13.0304 15.5304C12.7375 15.8233 12.2626 15.8233 11.9697 15.5304L10.75 14.3107L10.0304 15.0304C9.73747 15.3233 9.2626 15.3233 8.96971 15.0304C8.67681 14.7375 8.67681 14.2626 8.96971 13.9697L9.68938 13.25L8.46971 12.0304C8.17681 11.7375 8.17681 11.2626 8.46971 10.9697C8.7626 10.6768 9.23747 10.6768 9.53037 10.9697L10.75 12.1894L12.1894 10.75L10.9697 9.53037C10.6768 9.23747 10.6768 8.7626 10.9697 8.46971C11.2626 8.17681 11.7375 8.17681 12.0304 8.46971L13.25 9.68938L13.9697 8.96971C14.2626 8.67681 14.7375 8.67681 15.0304 8.96971Z" fill="#FFFCF2"/>
</svg>
