<svg width="22" height="22" viewBox="0 0 22 22" fill="none" xmlns="http://www.w3.org/2000/svg">
<g clip-path="url(#clip0_6_2)">
<path fill-rule="evenodd" clip-rule="evenodd" d="M8.26804 0.858932C5.76169 1.53246 3.6258 3.1104 2.23179 5.22135L4.30255 5.78223L8.26804 2.90114V0.858932ZM1.47706 6.57097C0.850094 7.91673 0.5 9.41748 0.5 11C0.5 12.1358 0.680348 13.2295 1.01397 14.254L3.3836 14.5031L5.36391 11.8307L3.86511 7.2178L1.47706 6.57097ZM3.64446 18.4931C2.85602 17.719 2.18922 16.8215 1.67535 15.8318L3.11086 15.9827L3.64446 18.4931ZM5.48481 19.9366C7.0876 20.9279 8.97699 21.5 11 21.5C11.589 21.5 12.1667 21.4515 12.7292 21.3583C12.5422 21.1816 12.4556 20.917 12.5108 20.6573L13.6117 15.4781L11.4718 12.7166H6.57438L4.5351 15.4686L5.48481 19.9366ZM19.982 16.4412C18.7787 18.4233 16.9378 19.9754 14.7439 20.8129L14.0913 20.4361L15.038 15.9827L19.5659 15.5068L19.982 16.4412ZM20.8383 14.6767C21.2661 13.5324 21.5 12.2935 21.5 11C21.5 10.1375 21.396 9.29937 21.1999 8.49734L17.3215 6.36435L14.171 7.21778L12.6754 11.8209L14.7546 14.5042L19.9511 13.958C20.2742 13.9241 20.5825 14.1021 20.7146 14.3989L20.8383 14.6767ZM18.8221 3.99525C19.4559 4.70253 19.9952 5.49626 20.4201 6.35658L18.3523 5.21935L18.8221 3.99525ZM17.6469 2.87129C15.8366 1.38923 13.5221 0.5 11 0.5C10.5833 0.5 10.1722 0.524282 9.76804 0.571508V2.90114L13.7335 5.78223L16.8539 4.93695L17.6469 2.87129ZM5.33465 6.88647L9.01804 4.21033L12.7015 6.88647L11.2945 11.2166H6.74158L5.33465 6.88647Z" fill="#FFFCF2"/>
</g>
<defs>
<clipPath id="clip0_6_2">
<rect width="22" height="22" fill="white"/>
</clipPath>
</defs>
</svg>
