<svg width="24" height="24" viewBox="0 0 24 24" fill="none" xmlns="http://www.w3.org/2000/svg">
<path d="M16.0281 19.229H8.26007C8.15213 19.2287 8.0452 19.2498 7.94542 19.2909C7.84564 19.3321 7.75496 19.3925 7.67859 19.4688C7.60222 19.5451 7.54166 19.6357 7.50039 19.7354C7.45911 19.8352 7.43793 19.9421 7.43807 20.05V22H16.7681V19.968C16.7678 19.7719 16.6897 19.5839 16.551 19.4454C16.4122 19.3068 16.2242 19.229 16.0281 19.229ZM10.3501 7.488C10.2111 7.816 10.0811 8.125 9.91807 8.619C9.69162 9.25296 9.52228 9.90589 9.41207 10.57C9.31227 11.3145 9.37817 12.0719 9.60507 12.788C9.72385 13.2386 9.81832 13.6953 9.88807 14.156C10.0429 15.1927 9.99498 16.2496 9.74707 17.268C9.60507 17.936 9.51907 18.34 9.85707 18.774C9.90861 18.8266 9.96303 18.8764 10.0201 18.923H14.1831C14.2412 18.8761 14.2966 18.8261 14.3491 18.773C14.6861 18.34 14.6011 17.936 14.4601 17.267C14.212 16.2489 14.1637 15.1924 14.3181 14.156C14.3876 13.6959 14.4817 13.24 14.6001 12.79C14.8273 12.0733 14.8932 11.3152 14.7931 10.57C14.6829 9.90727 14.5139 9.25569 14.2881 8.623C14.1231 8.123 13.9931 7.816 13.8551 7.488C13.7051 7.134 13.5551 6.767 13.3341 6.129C13.1206 5.56115 12.9472 4.97906 12.8151 4.387C12.7327 3.9418 12.678 3.49194 12.6511 3.04C12.6101 2.482 12.5821 2.208 12.3851 2.08L12.3141 2.025C12.2455 2.00933 12.1754 2.00095 12.1051 2C12.0326 1.99822 11.9603 2.0063 11.8901 2.024V2.034L11.8201 2.079C11.6201 2.207 11.5941 2.479 11.5531 3.039C11.5265 3.49059 11.472 3.94011 11.3901 4.385C11.2584 4.97326 11.086 5.55166 10.8741 6.116C10.6541 6.767 10.5001 7.134 10.3501 7.488ZM11.3611 10.956C11.3611 10.7592 11.4392 10.5705 11.5784 10.4313C11.7175 10.2922 11.9063 10.214 12.1031 10.214C12.2999 10.214 12.4886 10.2922 12.6277 10.4313C12.7669 10.5705 12.8451 10.7592 12.8451 10.956V12.413H11.3611V10.956ZM16.7801 17.49H15.8801C15.6149 17.4925 15.3602 17.5936 15.1655 17.7737C14.9708 17.9537 14.8502 18.1998 14.8271 18.464C14.8221 18.4976 14.8154 18.531 14.8071 18.564C14.7586 18.6935 14.6912 18.8152 14.6071 18.925H16.0251C16.3022 18.9253 16.568 19.0354 16.7641 19.2313C16.9601 19.4272 17.0705 19.6928 17.0711 19.97V21.35C17.2934 21.2889 17.4898 21.1569 17.6304 20.9741C17.771 20.7913 17.8481 20.5676 17.8501 20.337V18.563C17.8493 18.2792 17.7364 18.0072 17.536 17.8062C17.3356 17.6052 17.0639 17.4916 16.7801 17.49ZM8.26007 18.923H9.10007V18.547C9.09927 18.2662 8.98711 17.9972 8.78819 17.799C8.58927 17.6009 8.31985 17.4897 8.03907 17.49H7.20007C6.91998 17.4908 6.65158 17.6024 6.45353 17.8005C6.25547 17.9985 6.14386 18.2669 6.14307 18.547V20.353C6.1441 20.6205 6.24689 20.8776 6.43057 21.072C6.61426 21.2665 6.86507 21.3837 7.13207 21.4V20.05C7.13286 19.7512 7.25199 19.4648 7.46339 19.2536C7.67478 19.0424 7.96124 18.9235 8.26007 18.923ZM13.0001 3.832H16.0801C15.8267 3.83305 15.584 3.93425 15.4049 4.11352C15.2258 4.29279 15.1249 4.5356 15.1241 4.789V5.689H13.5091L13.5771 5.889H15.1241V6.151L13.8931 6.767L13.9741 6.972L15.1241 6.397V6.797C15.1249 7.05039 15.2258 7.2932 15.4049 7.47247C15.584 7.65174 15.8267 7.75294 16.0801 7.754H16.5851C16.8386 7.7532 17.0816 7.65212 17.2609 7.47282C17.4402 7.29352 17.5413 7.05056 17.5421 6.797V4.789C17.5413 4.53543 17.4402 4.29247 17.2609 4.11317C17.0816 3.93387 16.8386 3.83279 16.5851 3.832H16.6851C16.8242 3.81831 16.9523 3.75021 17.0415 3.64251C17.1306 3.53481 17.1736 3.39624 17.1611 3.257V2.8C17.1737 2.65342 17.1284 2.50772 17.035 2.39409C16.9415 2.28045 16.8073 2.20792 16.6611 2.192H12.8311C12.9099 2.51666 12.9532 2.84896 12.9601 3.183C12.9681 3.379 12.9821 3.6 13.0001 3.832ZM7.85507 7.753H8.35507C8.60864 7.75327 8.85202 7.6532 9.03207 7.47465C9.21212 7.2961 9.31422 7.05356 9.31607 6.8V6.452L10.4361 7.012L10.5191 6.812L9.31907 6.212V5.893H10.8511L10.9191 5.693H9.31907V4.793C9.31828 4.53943 9.21719 4.29647 9.03789 4.11717C8.85859 3.93787 8.61564 3.83679 8.36207 3.836H11.2001C11.2201 3.602 11.2351 3.383 11.2461 3.191C11.2525 2.85686 11.2961 2.52448 11.3761 2.2H7.59407C7.46024 2.21317 7.33703 2.27867 7.25126 2.38224C7.16548 2.4858 7.12408 2.61906 7.13607 2.753V3.3C7.12594 3.42951 7.16662 3.55789 7.24949 3.65793C7.33237 3.75798 7.45093 3.82184 7.58007 3.836H7.85507C7.6015 3.83679 7.35854 3.93787 7.17924 4.11717C6.99994 4.29647 6.89886 4.53943 6.89807 4.793V6.8C6.89991 7.05287 7.00145 7.2948 7.18064 7.47324C7.35983 7.65168 7.60219 7.75221 7.85507 7.753Z" fill="#FFFCF2"/>
</svg>
