<svg width="16" height="16" viewBox="0 0 16 16" fill="none" xmlns="http://www.w3.org/2000/svg">
<path d="M8.00008 14L11.0001 6.66667M11.7467 2.28201L10.7561 6.00001C10.7294 6.09941 10.7399 6.20513 10.7855 6.29739C10.8311 6.38965 10.9088 6.46213 11.004 6.50127C11.0992 6.54041 11.2053 6.54353 11.3027 6.51004C11.4 6.47656 11.4818 6.40876 11.5327 6.31934L13.4421 2.97801C13.5071 2.864 13.5471 2.73744 13.5594 2.60676C13.5717 2.47607 13.5559 2.34428 13.5132 2.22016C13.4706 2.09604 13.4019 1.98244 13.3118 1.88695C13.2218 1.79146 13.1124 1.71627 12.991 1.66638C12.8696 1.6165 12.7389 1.59308 12.6078 1.59767C12.4766 1.60227 12.3479 1.63478 12.2303 1.69304C12.1127 1.7513 12.0088 1.83396 11.9257 1.93552C11.8425 2.03708 11.782 2.1552 11.7481 2.28201M4.98075 11.5087L8.00008 13.9827C7.74675 14.2427 7.50342 14.5093 7.14542 14.614C6.96542 14.6667 6.77342 14.6667 6.38808 14.6667H4.43075C3.41608 14.6667 2.46408 14.3427 2.10608 13.29C1.76942 12.3007 2.23475 10.6593 3.49275 10.6667C3.95675 10.6693 4.29808 10.9493 4.98075 11.5087Z" stroke="#FFFCF2" stroke-linecap="round" stroke-linejoin="round"/>
</svg>
