<svg width="16" height="16" viewBox="0 0 16 16" fill="none" xmlns="http://www.w3.org/2000/svg">
<path d="M10.5534 6.95332C11.4782 7.68403 12.0887 8.74056 12.2601 9.90666C12.4482 10.9756 12.2371 12.0765 11.6667 13L10.5201 12.3333C10.8103 11.826 10.9621 11.2512 10.9601 10.6667C10.9466 9.96211 10.7187 9.2784 10.3067 8.70666L6.12008 15.9533L4.96008 15.3L6.96008 11.8333L5.80675 11.1733L4.80675 12.8933L3.66675 12.24L7.08675 6.29999C6.4054 5.56706 5.97769 4.63453 5.86675 3.63999C5.7381 2.63216 5.94673 1.6101 6.46008 0.733323L7.62008 1.41999C7.39546 1.79376 7.24894 2.20918 7.18936 2.64115C7.12977 3.07313 7.15837 3.51271 7.27341 3.93332C7.37563 4.35766 7.56465 4.75623 7.82855 5.10389C8.09245 5.45155 8.42552 5.74078 8.80675 5.95332M10.6667 3.33332C10.403 3.33332 10.1453 3.41152 9.92599 3.55803C9.70672 3.70454 9.53583 3.91278 9.43491 4.15641C9.33399 4.40005 9.30759 4.66814 9.35903 4.92678C9.41048 5.18542 9.53747 5.423 9.72394 5.60947C9.91041 5.79594 10.148 5.92292 10.4066 5.97437C10.6653 6.02582 10.9334 5.99941 11.177 5.8985C11.4206 5.79758 11.6289 5.62668 11.7754 5.40742C11.9219 5.18815 12.0001 4.93037 12.0001 4.66666C12.0001 4.31303 11.8596 3.9739 11.6096 3.72385C11.3595 3.4738 11.0204 3.33332 10.6667 3.33332ZM9.00008 0.666656C8.8023 0.666656 8.60896 0.725305 8.44451 0.835187C8.28006 0.945068 8.15189 1.10125 8.0762 1.28397C8.00051 1.4667 7.98071 1.66777 8.0193 1.86175C8.05788 2.05573 8.15312 2.23391 8.29297 2.37376C8.43283 2.51362 8.61101 2.60886 8.80499 2.64744C8.99897 2.68603 9.20004 2.66622 9.38276 2.59054C9.56549 2.51485 9.72167 2.38668 9.83155 2.22223C9.94143 2.05778 10.0001 1.86444 10.0001 1.66666C10.0001 1.40144 9.89472 1.14709 9.70719 0.95955C9.51965 0.772013 9.2653 0.666656 9.00008 0.666656Z" fill="#FFFCF2"/>
</svg>
