<svg width="16" height="16" viewBox="0 0 16 16" fill="none" xmlns="http://www.w3.org/2000/svg">
<path d="M14.6663 5.44144V5.49011C14.6663 6.06344 14.6663 6.35078 14.5283 6.58544C14.3903 6.82011 14.139 6.95944 13.6377 7.23878L13.109 7.53211C13.473 6.30011 13.595 4.97611 13.6397 3.84411L13.6463 3.69678L13.6477 3.66211C14.0817 3.81278 14.3257 3.92544 14.4777 4.13611C14.6663 4.39811 14.6663 4.74611 14.6663 5.44144ZM1.33301 5.44144V5.49011C1.33301 6.06344 1.33301 6.35078 1.47101 6.58544C1.60901 6.82011 1.86034 6.95944 2.36167 7.23878L2.89101 7.53211C2.52634 6.30011 2.40434 4.97611 2.35967 3.84411L2.35301 3.69678L2.35234 3.66211C1.91767 3.81278 1.67367 3.92544 1.52167 4.13611C1.33301 4.39811 1.33301 4.74678 1.33301 5.44144Z" fill="#FFFCF2"/>
<path fill-rule="evenodd" clip-rule="evenodd" d="M10.9176 1.56474C9.95304 1.40673 8.977 1.32936 7.9996 1.3334C6.81093 1.3334 5.83093 1.43807 5.0816 1.56474C4.32226 1.69274 3.94293 1.75674 3.6256 2.1474C3.30893 2.53807 3.3256 2.96007 3.35893 3.80407C3.47426 6.70274 4.0996 10.3241 7.4996 10.6441V13.0001H6.54626C6.3922 13.0002 6.24293 13.0536 6.12382 13.1513C6.00471 13.249 5.92313 13.385 5.89293 13.5361L5.76626 14.1667H3.9996C3.86699 14.1667 3.73981 14.2194 3.64604 14.3132C3.55228 14.407 3.4996 14.5341 3.4996 14.6667C3.4996 14.7993 3.55228 14.9265 3.64604 15.0203C3.73981 15.1141 3.86699 15.1667 3.9996 15.1667H11.9996C12.1322 15.1667 12.2594 15.1141 12.3532 15.0203C12.4469 14.9265 12.4996 14.7993 12.4996 14.6667C12.4996 14.5341 12.4469 14.407 12.3532 14.3132C12.2594 14.2194 12.1322 14.1667 11.9996 14.1667H10.2329L10.1063 13.5361C10.0761 13.385 9.99448 13.249 9.87537 13.1513C9.75627 13.0536 9.60699 13.0002 9.45293 13.0001H8.4996V10.6441C11.8996 10.3241 12.5256 6.7034 12.6403 3.80407C12.6736 2.96007 12.6909 2.5374 12.3736 2.1474C12.0563 1.75674 11.6769 1.69274 10.9176 1.56474Z" fill="#FFFCF2"/>
</svg>
