<svg width="638" height="113" viewBox="0 0 638 113" fill="none" xmlns="http://www.w3.org/2000/svg">
<path d="M36.1406 75.5469C36.1406 74.2969 35.8594 73.1406 35.2969 72.0781C34.7656 70.9844 33.6562 70 31.9688 69.125C30.3125 68.2188 27.8125 67.4375 24.4688 66.7812C21.6562 66.1875 19.1094 65.4844 16.8281 64.6719C14.5781 63.8594 12.6562 62.875 11.0625 61.7188C9.5 60.5625 8.29688 59.2031 7.45312 57.6406C6.60938 56.0781 6.1875 54.25 6.1875 52.1562C6.1875 50.1562 6.625 48.2656 7.5 46.4844C8.40625 44.7031 9.67188 43.125 11.2969 41.75C12.9531 40.375 14.9375 39.2969 17.25 38.5156C19.5625 37.7344 22.1406 37.3438 24.9844 37.3438C29.0469 37.3438 32.5156 38.0625 35.3906 39.5C38.2656 40.9375 40.4688 42.8594 42 45.2656C43.5312 47.6406 44.2969 50.2812 44.2969 53.1875H35.625C35.625 51.7812 35.2031 50.4219 34.3594 49.1094C33.5469 47.7656 32.3438 46.6562 30.75 45.7812C29.1875 44.9062 27.2656 44.4688 24.9844 44.4688C22.5781 44.4688 20.625 44.8438 19.125 45.5938C17.6562 46.3125 16.5781 47.2344 15.8906 48.3594C15.2344 49.4844 14.9062 50.6719 14.9062 51.9219C14.9062 52.8594 15.0625 53.7031 15.375 54.4531C15.7188 55.1719 16.3125 55.8438 17.1562 56.4688C18 57.0625 19.1875 57.625 20.7188 58.1562C22.25 58.6875 24.2031 59.2188 26.5781 59.75C30.7344 60.6875 34.1562 61.8125 36.8438 63.125C39.5312 64.4375 41.5312 66.0469 42.8438 67.9531C44.1562 69.8594 44.8125 72.1719 44.8125 74.8906C44.8125 77.1094 44.3438 79.1406 43.4062 80.9844C42.5 82.8281 41.1719 84.4219 39.4219 85.7656C37.7031 87.0781 35.6406 88.1094 33.2344 88.8594C30.8594 89.5781 28.1875 89.9375 25.2188 89.9375C20.75 89.9375 16.9688 89.1406 13.875 87.5469C10.7812 85.9531 8.4375 83.8906 6.84375 81.3594C5.25 78.8281 4.45312 76.1562 4.45312 73.3438H13.1719C13.2969 75.7188 13.9844 77.6094 15.2344 79.0156C16.4844 80.3906 18.0156 81.375 19.8281 81.9688C21.6406 82.5312 23.4375 82.8125 25.2188 82.8125C27.5938 82.8125 29.5781 82.5 31.1719 81.875C32.7969 81.25 34.0312 80.3906 34.875 79.2969C35.7188 78.2031 36.1406 76.9531 36.1406 75.5469ZM64.875 48.0312V108.5H56.1562V38.2812H64.125L64.875 48.0312ZM99.0469 63.2188V64.2031C99.0469 67.8906 98.6094 71.3125 97.7344 74.4688C96.8594 77.5938 95.5781 80.3125 93.8906 82.625C92.2344 84.9375 90.1875 86.7344 87.75 88.0156C85.3125 89.2969 82.5156 89.9375 79.3594 89.9375C76.1406 89.9375 73.2969 89.4062 70.8281 88.3438C68.3594 87.2812 66.2656 85.7344 64.5469 83.7031C62.8281 81.6719 61.4531 79.2344 60.4219 76.3906C59.4219 73.5469 58.7344 70.3438 58.3594 66.7812V61.5312C58.7344 57.7812 59.4375 54.4219 60.4688 51.4531C61.5 48.4844 62.8594 45.9531 64.5469 43.8594C66.2656 41.7344 68.3438 40.125 70.7812 39.0312C73.2188 37.9062 76.0312 37.3438 79.2188 37.3438C82.4062 37.3438 85.2344 37.9688 87.7031 39.2188C90.1719 40.4375 92.25 42.1875 93.9375 44.4688C95.625 46.75 96.8906 49.4844 97.7344 52.6719C98.6094 55.8281 99.0469 59.3438 99.0469 63.2188ZM90.3281 64.2031V63.2188C90.3281 60.6875 90.0625 58.3125 89.5312 56.0938C89 53.8438 88.1719 51.875 87.0469 50.1875C85.9531 48.4688 84.5469 47.125 82.8281 46.1562C81.1094 45.1562 79.0625 44.6562 76.6875 44.6562C74.5 44.6562 72.5938 45.0312 70.9688 45.7812C69.375 46.5312 68.0156 47.5469 66.8906 48.8281C65.7656 50.0781 64.8438 51.5156 64.125 53.1406C63.4375 54.7344 62.9219 56.3906 62.5781 58.1094V70.25C63.2031 72.4375 64.0781 74.5 65.2031 76.4375C66.3281 78.3438 67.8281 79.8906 69.7031 81.0781C71.5781 82.2344 73.9375 82.8125 76.7812 82.8125C79.125 82.8125 81.1406 82.3281 82.8281 81.3594C84.5469 80.3594 85.9531 79 87.0469 77.2812C88.1719 75.5625 89 73.5938 89.5312 71.375C90.0625 69.125 90.3281 66.7344 90.3281 64.2031ZM118.781 46.25V89H110.109V38.2812H118.547L118.781 46.25ZM134.625 38L134.578 46.0625C133.859 45.9062 133.172 45.8125 132.516 45.7812C131.891 45.7188 131.172 45.6875 130.359 45.6875C128.359 45.6875 126.594 46 125.062 46.625C123.531 47.25 122.234 48.125 121.172 49.25C120.109 50.375 119.266 51.7188 118.641 53.2812C118.047 54.8125 117.656 56.5 117.469 58.3438L115.031 59.75C115.031 56.6875 115.328 53.8125 115.922 51.125C116.547 48.4375 117.5 46.0625 118.781 44C120.062 41.9062 121.688 40.2812 123.656 39.125C125.656 37.9375 128.031 37.3438 130.781 37.3438C131.406 37.3438 132.125 37.4219 132.938 37.5781C133.75 37.7031 134.312 37.8438 134.625 38ZM162.75 89.9375C159.219 89.9375 156.016 89.3438 153.141 88.1562C150.297 86.9375 147.844 85.2344 145.781 83.0469C143.75 80.8594 142.188 78.2656 141.094 75.2656C140 72.2656 139.453 68.9844 139.453 65.4219V63.4531C139.453 59.3281 140.062 55.6562 141.281 52.4375C142.5 49.1875 144.156 46.4375 146.25 44.1875C148.344 41.9375 150.719 40.2344 153.375 39.0781C156.031 37.9219 158.781 37.3438 161.625 37.3438C165.25 37.3438 168.375 37.9688 171 39.2188C173.656 40.4688 175.828 42.2188 177.516 44.4688C179.203 46.6875 180.453 49.3125 181.266 52.3438C182.078 55.3438 182.484 58.625 182.484 62.1875V66.0781H144.609V59H173.812V58.3438C173.688 56.0938 173.219 53.9062 172.406 51.7812C171.625 49.6562 170.375 47.9062 168.656 46.5312C166.938 45.1562 164.594 44.4688 161.625 44.4688C159.656 44.4688 157.844 44.8906 156.188 45.7344C154.531 46.5469 153.109 47.7656 151.922 49.3906C150.734 51.0156 149.812 53 149.156 55.3438C148.5 57.6875 148.172 60.3906 148.172 63.4531V65.4219C148.172 67.8281 148.5 70.0938 149.156 72.2188C149.844 74.3125 150.828 76.1562 152.109 77.75C153.422 79.3438 155 80.5938 156.844 81.5C158.719 82.4062 160.844 82.8594 163.219 82.8594C166.281 82.8594 168.875 82.2344 171 80.9844C173.125 79.7344 174.984 78.0625 176.578 75.9688L181.828 80.1406C180.734 81.7969 179.344 83.375 177.656 84.875C175.969 86.375 173.891 87.5938 171.422 88.5312C168.984 89.4688 166.094 89.9375 162.75 89.9375ZM224.578 79.1562V17H233.297V89H225.328L224.578 79.1562ZM190.453 64.2031V63.2188C190.453 59.3438 190.922 55.8281 191.859 52.6719C192.828 49.4844 194.188 46.75 195.938 44.4688C197.719 42.1875 199.828 40.4375 202.266 39.2188C204.734 37.9688 207.484 37.3438 210.516 37.3438C213.703 37.3438 216.484 37.9062 218.859 39.0312C221.266 40.125 223.297 41.7344 224.953 43.8594C226.641 45.9531 227.969 48.4844 228.938 51.4531C229.906 54.4219 230.578 57.7812 230.953 61.5312V65.8438C230.609 69.5625 229.938 72.9062 228.938 75.875C227.969 78.8438 226.641 81.375 224.953 83.4688C223.297 85.5625 221.266 87.1719 218.859 88.2969C216.453 89.3906 213.641 89.9375 210.422 89.9375C207.453 89.9375 204.734 89.2969 202.266 88.0156C199.828 86.7344 197.719 84.9375 195.938 82.625C194.188 80.3125 192.828 77.5938 191.859 74.4688C190.922 71.3125 190.453 67.8906 190.453 64.2031ZM199.172 63.2188V64.2031C199.172 66.7344 199.422 69.1094 199.922 71.3281C200.453 73.5469 201.266 75.5 202.359 77.1875C203.453 78.875 204.844 80.2031 206.531 81.1719C208.219 82.1094 210.234 82.5781 212.578 82.5781C215.453 82.5781 217.812 81.9688 219.656 80.75C221.531 79.5312 223.031 77.9219 224.156 75.9219C225.281 73.9219 226.156 71.75 226.781 69.4062V58.1094C226.406 56.3906 225.859 54.7344 225.141 53.1406C224.453 51.5156 223.547 50.0781 222.422 48.8281C221.328 47.5469 219.969 46.5312 218.344 45.7812C216.75 45.0312 214.859 44.6562 212.672 44.6562C210.297 44.6562 208.25 45.1562 206.531 46.1562C204.844 47.125 203.453 48.4688 202.359 50.1875C201.266 51.875 200.453 53.8438 199.922 56.0938C199.422 58.3125 199.172 60.6875 199.172 63.2188ZM256.219 17V89H247.5V17H256.219ZM284.391 83.75L298.5 38.2812H307.781L287.438 96.8281C286.969 98.0781 286.344 99.4219 285.562 100.859C284.812 102.328 283.844 103.719 282.656 105.031C281.469 106.344 280.031 107.406 278.344 108.219C276.688 109.062 274.703 109.484 272.391 109.484C271.703 109.484 270.828 109.391 269.766 109.203C268.703 109.016 267.953 108.859 267.516 108.734L267.469 101.703C267.719 101.734 268.109 101.766 268.641 101.797C269.203 101.859 269.594 101.891 269.812 101.891C271.781 101.891 273.453 101.625 274.828 101.094C276.203 100.594 277.359 99.7344 278.297 98.5156C279.266 97.3281 280.094 95.6875 280.781 93.5938L284.391 83.75ZM274.031 38.2812L287.203 77.6562L289.453 86.7969L283.219 89.9844L264.562 38.2812H274.031Z" fill="white"/>
<path d="M344.281 46.25V89H335.609V38.2812H344.047L344.281 46.25ZM360.125 38L360.078 46.0625C359.359 45.9062 358.672 45.8125 358.016 45.7812C357.391 45.7188 356.672 45.6875 355.859 45.6875C353.859 45.6875 352.094 46 350.562 46.625C349.031 47.25 347.734 48.125 346.672 49.25C345.609 50.375 344.766 51.7188 344.141 53.2812C343.547 54.8125 343.156 56.5 342.969 58.3438L340.531 59.75C340.531 56.6875 340.828 53.8125 341.422 51.125C342.047 48.4375 343 46.0625 344.281 44C345.562 41.9062 347.188 40.2812 349.156 39.125C351.156 37.9375 353.531 37.3438 356.281 37.3438C356.906 37.3438 357.625 37.4219 358.438 37.5781C359.25 37.7031 359.812 37.8438 360.125 38ZM399.172 77.2812V38.2812H407.891V89H399.594L399.172 77.2812ZM400.812 66.5938L404.422 66.5C404.422 69.875 404.062 73 403.344 75.875C402.656 78.7188 401.531 81.1875 399.969 83.2812C398.406 85.375 396.359 87.0156 393.828 88.2031C391.297 89.3594 388.219 89.9375 384.594 89.9375C382.125 89.9375 379.859 89.5781 377.797 88.8594C375.766 88.1406 374.016 87.0312 372.547 85.5312C371.078 84.0312 369.938 82.0781 369.125 79.6719C368.344 77.2656 367.953 74.375 367.953 71V38.2812H376.625V71.0938C376.625 73.375 376.875 75.2656 377.375 76.7656C377.906 78.2344 378.609 79.4062 379.484 80.2812C380.391 81.125 381.391 81.7188 382.484 82.0625C383.609 82.4062 384.766 82.5781 385.953 82.5781C389.641 82.5781 392.562 81.875 394.719 80.4688C396.875 79.0312 398.422 77.1094 399.359 74.7031C400.328 72.2656 400.812 69.5625 400.812 66.5938Z" fill="white"/>
<circle cx="318" cy="82" r="7" fill="#EB5E28"/>
</svg>
