<svg width="131" height="21" viewBox="0 0 131 21" fill="none" xmlns="http://www.w3.org/2000/svg">
<path d="M10.8799 15.8C10.8799 15.304 10.6799 14.84 10.2799 14.408C9.87993 13.976 9.38393 13.584 8.79193 13.232C8.19993 12.864 7.39993 12.416 6.39193 11.888C5.19193 11.264 4.21593 10.72 3.46393 10.256C2.72793 9.79201 2.09593 9.24801 1.56793 8.62401C1.05593 7.98401 0.799932 7.28001 0.799932 6.51201C0.799932 5.71201 1.13593 4.85601 1.80793 3.94401C2.49593 3.01601 3.33593 2.24001 4.32793 1.61601C5.31993 0.976006 6.23193 0.656006 7.06393 0.656006C8.07193 0.656006 9.23993 0.776006 10.5679 1.01601C11.9119 1.25601 12.8959 1.51201 13.5199 1.78401V6.56001H12.3439C11.5919 5.26401 10.7599 4.25601 9.84793 3.53601C8.93593 2.81601 7.97593 2.45601 6.96793 2.45601C6.10393 2.45601 5.42393 2.72801 4.92793 3.27201C4.43193 3.80001 4.18393 4.48801 4.18393 5.33601C4.18393 5.86401 4.38393 6.36001 4.78393 6.82401C5.19993 7.27201 5.71193 7.68001 6.31993 8.04801C6.92793 8.41601 7.74393 8.86401 8.76793 9.39201C9.98393 10.032 10.9439 10.576 11.6479 11.024C12.3679 11.472 12.9759 12 13.4719 12.608C13.9839 13.216 14.2399 13.896 14.2399 14.648C14.2399 15.448 13.8719 16.312 13.1359 17.24C12.4159 18.152 11.5279 18.928 10.4719 19.568C9.41593 20.192 8.45593 20.504 7.59193 20.504C6.53593 20.504 5.27993 20.384 3.82393 20.144C2.36793 19.904 1.31993 19.648 0.679932 19.376V14.6H1.85593C2.65593 15.896 3.55993 16.904 4.56793 17.624C5.59193 18.344 6.63993 18.704 7.71193 18.704C8.35193 18.704 8.91193 18.568 9.39193 18.296C9.87193 18.024 10.2399 17.672 10.4959 17.24C10.7519 16.792 10.8799 16.312 10.8799 15.8Z" fill="#FFFCF2"/>
<path d="M26.3886 10.784C27.4286 10.784 28.2446 10.488 28.8366 9.89601C29.4446 9.30401 29.7486 8.48801 29.7486 7.44801C29.7486 6.02401 29.3886 4.85601 28.6686 3.94401C27.9646 3.03201 26.9246 2.57601 25.5486 2.57601C24.4926 2.57601 23.5486 2.87201 22.7166 3.46401V17.936L26.5326 18.944L25.9806 20.024H17.1966V19.16L19.4526 17.384V3.03201L16.9086 2.21601L17.4606 1.13601H20.4846C22.0046 1.13601 23.5006 1.08801 24.9726 0.992006C26.0926 0.928006 26.9086 0.896006 27.4206 0.896006C28.5726 0.896006 29.5886 1.13601 30.4686 1.61601C31.3646 2.09601 32.0526 2.75201 32.5326 3.58401C33.0286 4.40001 33.2766 5.32001 33.2766 6.34401C33.2766 7.46401 32.8606 8.52801 32.0286 9.53601C31.1966 10.528 30.1406 11.304 28.8606 11.864C27.5806 12.424 26.3246 12.672 25.0926 12.608L23.9886 11.84L24.5406 10.76H26.3646L26.3886 10.784Z" fill="#FFFCF2"/>
<path d="M53.6581 19.976H49.0501L43.9141 11.504L42.7861 10.712L43.1941 9.89601H44.4901C45.5461 9.89601 46.3701 9.62401 46.9621 9.08001C47.5701 8.53601 47.8741 7.78401 47.8741 6.82401C47.8741 5.57601 47.5301 4.55201 46.8421 3.75201C46.1701 2.93601 45.1781 2.52801 43.8661 2.52801C43.0181 2.52801 42.2261 2.79201 41.4901 3.32001V18.08L44.0341 18.92L43.5061 20H35.9701V19.136L38.2261 17.36V3.00801L35.6821 2.21601L36.2341 1.13601H39.2581C40.7141 1.13601 42.1301 1.08801 43.5061 0.992006C44.5301 0.928006 45.2821 0.896006 45.7621 0.896006C46.8661 0.896006 47.8501 1.11201 48.7141 1.54401C49.5781 1.97601 50.2421 2.56801 50.7061 3.32001C51.1861 4.05601 51.4261 4.86401 51.4261 5.74401C51.4261 6.52801 51.1781 7.28001 50.6821 8.00001C50.2021 8.72001 49.5621 9.35201 48.7621 9.89601C47.9621 10.44 47.1141 10.856 46.2181 11.144L47.8501 11.672L51.4261 17.576L54.2101 18.896L53.6581 19.976Z" fill="#FFFCF2"/>
<path d="M70.1312 20.024H55.5872V19.16L57.8432 17.384V3.05601L55.2992 2.21601L55.8512 1.13601H69.8912L71.2832 0.704007V6.34401L70.4432 6.63201L67.5632 2.36001H61.1072V9.75201H64.6832L66.4352 6.75201H67.2992V13.976L66.2192 14.528L64.7072 10.976H61.1072V18.776H67.4432L70.6832 14L71.5232 14.312V20.456L70.1312 20.024Z" fill="#FFFCF2"/>
<path d="M85.1176 0.920007C86.7976 0.920007 88.2776 1.32001 89.5576 2.12001C90.8536 2.90401 91.8536 4.00001 92.5576 5.40801C93.2776 6.81601 93.6376 8.40801 93.6376 10.184C93.6376 12.008 93.0936 13.696 92.0056 15.248C90.9336 16.784 89.5976 18.008 87.9976 18.92C86.3976 19.816 84.8696 20.264 83.4136 20.264C82.6456 20.264 81.9016 20.224 81.1816 20.144C79.9336 20.064 78.9896 20.024 78.3496 20.024H75.1576V19.16L77.4136 17.384V3.03201L74.8696 2.21601L75.4216 1.13601H78.3256C79.8296 1.13601 81.3016 1.08801 82.7416 0.992006C83.8296 0.928006 84.6216 0.896006 85.1176 0.896006V0.920007ZM84.0856 18.368C85.2056 18.368 86.2216 18.064 87.1336 17.456C88.0456 16.848 88.7656 16.008 89.2936 14.936C89.8216 13.848 90.0856 12.632 90.0856 11.288C90.0856 9.67201 89.8376 8.20801 89.3416 6.89601C88.8456 5.56801 88.0856 4.51201 87.0616 3.72801C86.0376 2.94401 84.7656 2.55201 83.2456 2.55201C82.3016 2.55201 81.4456 2.82401 80.6776 3.36801V17.816C81.6536 18.2 82.7896 18.392 84.0856 18.392V18.368Z" fill="#FFFCF2"/>
<path d="M111.194 20H96.6263V19.136L98.8823 17.36V3.03201L96.3383 2.21601L96.8903 1.13601H104.426V2.00001L102.146 3.77601V18.776H108.17L111.746 13.52L112.586 13.832V20.432L111.194 20Z" fill="#FFFCF2"/>
<path d="M122.522 18.104L125.066 18.92L124.538 20H117.026V19.136L119.282 17.36V13.28L113.066 3.29601L111.194 2.21601L111.674 1.13601H119.138V2.00001L117.002 3.65601L121.706 11.24L126.554 3.77601L122.81 2.21601L123.338 1.13601H130.73V2.00001L128.69 3.29601L122.522 12.8V18.104Z" fill="#EB5E28"/>
</svg>
