<svg width="185" height="48" viewBox="0 0 185 48" fill="none" xmlns="http://www.w3.org/2000/svg">
<path d="M21.1836 29.3945C21.1836 28.8737 21.0664 28.3919 20.832 27.9492C20.6107 27.4935 20.1484 27.0833 19.4453 26.7188C18.7552 26.3411 17.7135 26.0156 16.3203 25.7422C15.1484 25.4948 14.0872 25.2018 13.1367 24.8633C12.1992 24.5247 11.3984 24.1146 10.7344 23.6328C10.0833 23.151 9.58203 22.5846 9.23047 21.9336C8.87891 21.2826 8.70312 20.5208 8.70312 19.6484C8.70312 18.8151 8.88542 18.0273 9.25 17.2852C9.6276 16.543 10.1549 15.8854 10.832 15.3125C11.5221 14.7396 12.349 14.2904 13.3125 13.9648C14.276 13.6393 15.3503 13.4766 16.5352 13.4766C18.2279 13.4766 19.6732 13.776 20.8711 14.375C22.069 14.974 22.987 15.7747 23.625 16.7773C24.263 17.7669 24.582 18.8672 24.582 20.0781H20.9688C20.9688 19.4922 20.793 18.9258 20.4414 18.3789C20.1029 17.819 19.6016 17.3568 18.9375 16.9922C18.2865 16.6276 17.4857 16.4453 16.5352 16.4453C15.5326 16.4453 14.7188 16.6016 14.0938 16.9141C13.4818 17.2135 13.0326 17.5977 12.7461 18.0664C12.4727 18.5352 12.3359 19.0299 12.3359 19.5508C12.3359 19.9414 12.401 20.293 12.5312 20.6055C12.6745 20.9049 12.9219 21.1849 13.2734 21.4453C13.625 21.6927 14.1198 21.9271 14.7578 22.1484C15.3958 22.3698 16.2096 22.5911 17.1992 22.8125C18.931 23.2031 20.3568 23.6719 21.4766 24.2188C22.5964 24.7656 23.4297 25.4362 23.9766 26.2305C24.5234 27.0247 24.7969 27.9883 24.7969 29.1211C24.7969 30.0456 24.6016 30.8919 24.2109 31.6602C23.8333 32.4284 23.2799 33.0924 22.5508 33.6523C21.8346 34.1992 20.9753 34.6289 19.9727 34.9414C18.9831 35.2409 17.8698 35.3906 16.6328 35.3906C14.7708 35.3906 13.1953 35.0586 11.9062 34.3945C10.6172 33.7305 9.64062 32.8711 8.97656 31.8164C8.3125 30.7617 7.98047 29.6484 7.98047 28.4766H11.6133C11.6654 29.4661 11.9518 30.2539 12.4727 30.8398C12.9935 31.4128 13.6315 31.8229 14.3867 32.0703C15.1419 32.3047 15.8906 32.4219 16.6328 32.4219C17.6224 32.4219 18.4492 32.2917 19.1133 32.0312C19.7904 31.7708 20.3047 31.4128 20.6562 30.957C21.0078 30.5013 21.1836 29.9805 21.1836 29.3945ZM33.1562 17.9297V43.125H29.5234V13.8672H32.8438L33.1562 17.9297ZM47.3945 24.2578V24.668C47.3945 26.2044 47.2122 27.6302 46.8477 28.9453C46.4831 30.2474 45.9492 31.3802 45.2461 32.3438C44.556 33.3073 43.7031 34.056 42.6875 34.5898C41.6719 35.1237 40.5065 35.3906 39.1914 35.3906C37.8503 35.3906 36.6654 35.1693 35.6367 34.7266C34.6081 34.2839 33.7357 33.6393 33.0195 32.793C32.3034 31.9466 31.7305 30.931 31.3008 29.7461C30.8841 28.5612 30.5977 27.2266 30.4414 25.7422V23.5547C30.5977 21.9922 30.8906 20.5924 31.3203 19.3555C31.75 18.1185 32.3164 17.0638 33.0195 16.1914C33.7357 15.306 34.6016 14.6354 35.6172 14.1797C36.6328 13.7109 37.8047 13.4766 39.1328 13.4766C40.4609 13.4766 41.6393 13.737 42.668 14.2578C43.6966 14.7656 44.5625 15.4948 45.2656 16.4453C45.9688 17.3958 46.4961 18.5352 46.8477 19.8633C47.2122 21.1784 47.3945 22.6432 47.3945 24.2578ZM43.7617 24.668V24.2578C43.7617 23.2031 43.651 22.2135 43.4297 21.2891C43.2083 20.3516 42.8633 19.5312 42.3945 18.8281C41.9388 18.112 41.3529 17.5521 40.6367 17.1484C39.9206 16.7318 39.0677 16.5234 38.0781 16.5234C37.1667 16.5234 36.3724 16.6797 35.6953 16.9922C35.0312 17.3047 34.4648 17.7279 33.9961 18.2617C33.5273 18.7826 33.1432 19.3815 32.8438 20.0586C32.5573 20.7227 32.3424 21.4128 32.1992 22.1289V27.1875C32.4596 28.099 32.8242 28.9583 33.293 29.7656C33.7617 30.5599 34.3867 31.2044 35.168 31.6992C35.9492 32.181 36.9323 32.4219 38.1172 32.4219C39.0938 32.4219 39.9336 32.2201 40.6367 31.8164C41.3529 31.3997 41.9388 30.8333 42.3945 30.1172C42.8633 29.401 43.2083 28.5807 43.4297 27.6562C43.651 26.7188 43.7617 25.7227 43.7617 24.668ZM55.6172 17.1875V35H52.0039V13.8672H55.5195L55.6172 17.1875ZM62.2188 13.75L62.1992 17.1094C61.8997 17.0443 61.6133 17.0052 61.3398 16.9922C61.0794 16.9661 60.7799 16.9531 60.4414 16.9531C59.6081 16.9531 58.8724 17.0833 58.2344 17.3438C57.5964 17.6042 57.056 17.9688 56.6133 18.4375C56.1706 18.9062 55.819 19.4661 55.5586 20.1172C55.3112 20.7552 55.1484 21.4583 55.0703 22.2266L54.0547 22.8125C54.0547 21.5365 54.1784 20.3385 54.4258 19.2188C54.6862 18.099 55.0833 17.1094 55.6172 16.25C56.151 15.3776 56.8281 14.7005 57.6484 14.2188C58.4818 13.724 59.4714 13.4766 60.6172 13.4766C60.8776 13.4766 61.1771 13.5091 61.5156 13.5742C61.8542 13.6263 62.0885 13.6849 62.2188 13.75ZM73.9375 35.3906C72.4661 35.3906 71.1315 35.1432 69.9336 34.6484C68.7487 34.1406 67.7266 33.431 66.8672 32.5195C66.0208 31.6081 65.3698 30.5273 64.9141 29.2773C64.4583 28.0273 64.2305 26.6602 64.2305 25.1758V24.3555C64.2305 22.6367 64.4844 21.1068 64.9922 19.7656C65.5 18.4115 66.1901 17.2656 67.0625 16.3281C67.9349 15.3906 68.9245 14.681 70.0312 14.1992C71.138 13.7174 72.2839 13.4766 73.4688 13.4766C74.9792 13.4766 76.2812 13.737 77.375 14.2578C78.4818 14.7786 79.3867 15.5078 80.0898 16.4453C80.793 17.3698 81.3138 18.4635 81.6523 19.7266C81.9909 20.9766 82.1602 22.3438 82.1602 23.8281V25.4492H66.3789V22.5H78.5469V22.2266C78.4948 21.2891 78.2995 20.3776 77.9609 19.4922C77.6354 18.6068 77.1146 17.8776 76.3984 17.3047C75.6823 16.7318 74.7057 16.4453 73.4688 16.4453C72.6484 16.4453 71.8932 16.6211 71.2031 16.9727C70.513 17.3112 69.9206 17.819 69.4258 18.4961C68.931 19.1732 68.5469 20 68.2734 20.9766C68 21.9531 67.8633 23.0794 67.8633 24.3555V25.1758C67.8633 26.1784 68 27.1224 68.2734 28.0078C68.5599 28.8802 68.9701 29.6484 69.5039 30.3125C70.0508 30.9766 70.7083 31.4974 71.4766 31.875C72.2578 32.2526 73.1432 32.4414 74.1328 32.4414C75.4089 32.4414 76.4896 32.181 77.375 31.6602C78.2604 31.1393 79.0352 30.4427 79.6992 29.5703L81.8867 31.3086C81.431 31.9987 80.8516 32.6562 80.1484 33.2812C79.4453 33.9062 78.5794 34.4141 77.5508 34.8047C76.5352 35.1953 75.3307 35.3906 73.9375 35.3906ZM99.6992 30.8984V5H103.332V35H100.012L99.6992 30.8984ZM85.4805 24.668V24.2578C85.4805 22.6432 85.6758 21.1784 86.0664 19.8633C86.4701 18.5352 87.0365 17.3958 87.7656 16.4453C88.5078 15.4948 89.3867 14.7656 90.4023 14.2578C91.431 13.737 92.5768 13.4766 93.8398 13.4766C95.168 13.4766 96.3268 13.7109 97.3164 14.1797C98.319 14.6354 99.1654 15.306 99.8555 16.1914C100.559 17.0638 101.112 18.1185 101.516 19.3555C101.919 20.5924 102.199 21.9922 102.355 23.5547V25.3516C102.212 26.901 101.932 28.2943 101.516 29.5312C101.112 30.7682 100.559 31.8229 99.8555 32.6953C99.1654 33.5677 98.319 34.2383 97.3164 34.707C96.3138 35.1628 95.1419 35.3906 93.8008 35.3906C92.5638 35.3906 91.431 35.1237 90.4023 34.5898C89.3867 34.056 88.5078 33.3073 87.7656 32.3438C87.0365 31.3802 86.4701 30.2474 86.0664 28.9453C85.6758 27.6302 85.4805 26.2044 85.4805 24.668ZM89.1133 24.2578V24.668C89.1133 25.7227 89.2174 26.7122 89.4258 27.6367C89.6471 28.5612 89.9857 29.375 90.4414 30.0781C90.8971 30.7812 91.4766 31.3346 92.1797 31.7383C92.8828 32.1289 93.7227 32.3242 94.6992 32.3242C95.8971 32.3242 96.8802 32.0703 97.6484 31.5625C98.4297 31.0547 99.0547 30.3841 99.5234 29.5508C99.9922 28.7174 100.357 27.8125 100.617 26.8359V22.1289C100.461 21.4128 100.233 20.7227 99.9336 20.0586C99.6471 19.3815 99.2695 18.7826 98.8008 18.2617C98.3451 17.7279 97.7786 17.3047 97.1016 16.9922C96.4375 16.6797 95.6497 16.5234 94.7383 16.5234C93.7487 16.5234 92.8958 16.7318 92.1797 17.1484C91.4766 17.5521 90.8971 18.112 90.4414 18.8281C89.9857 19.5312 89.6471 20.3516 89.4258 21.2891C89.2174 22.2135 89.1133 23.2031 89.1133 24.2578ZM112.883 5V35H109.25V5H112.883ZM124.621 32.8125L130.5 13.8672H134.367L125.891 38.2617C125.695 38.7826 125.435 39.3424 125.109 39.9414C124.797 40.5534 124.393 41.1328 123.898 41.6797C123.404 42.2266 122.805 42.6693 122.102 43.0078C121.411 43.3594 120.585 43.5352 119.621 43.5352C119.335 43.5352 118.97 43.4961 118.527 43.418C118.085 43.3398 117.772 43.2747 117.59 43.2227L117.57 40.293C117.674 40.306 117.837 40.319 118.059 40.332C118.293 40.3581 118.456 40.3711 118.547 40.3711C119.367 40.3711 120.064 40.2604 120.637 40.0391C121.21 39.8307 121.691 39.4727 122.082 38.9648C122.486 38.4701 122.831 37.7865 123.117 36.9141L124.621 32.8125ZM120.305 13.8672L125.793 30.2734L126.73 34.082L124.133 35.4102L116.359 13.8672H120.305Z" fill="white"/>
<path d="M150.367 17.1875V35H146.754V13.8672H150.27L150.367 17.1875ZM156.969 13.75L156.949 17.1094C156.65 17.0443 156.363 17.0052 156.09 16.9922C155.829 16.9661 155.53 16.9531 155.191 16.9531C154.358 16.9531 153.622 17.0833 152.984 17.3438C152.346 17.6042 151.806 17.9688 151.363 18.4375C150.921 18.9062 150.569 19.4661 150.309 20.1172C150.061 20.7552 149.898 21.4583 149.82 22.2266L148.805 22.8125C148.805 21.5365 148.928 20.3385 149.176 19.2188C149.436 18.099 149.833 17.1094 150.367 16.25C150.901 15.3776 151.578 14.7005 152.398 14.2188C153.232 13.724 154.221 13.4766 155.367 13.4766C155.628 13.4766 155.927 13.5091 156.266 13.5742C156.604 13.6263 156.839 13.6849 156.969 13.75ZM173.238 30.1172V13.8672H176.871V35H173.414L173.238 30.1172ZM173.922 25.6641L175.426 25.625C175.426 27.0312 175.276 28.3333 174.977 29.5312C174.69 30.7161 174.221 31.7448 173.57 32.6172C172.919 33.4896 172.066 34.1732 171.012 34.668C169.957 35.1497 168.674 35.3906 167.164 35.3906C166.135 35.3906 165.191 35.2409 164.332 34.9414C163.486 34.6419 162.757 34.1797 162.145 33.5547C161.533 32.9297 161.057 32.1159 160.719 31.1133C160.393 30.1107 160.23 28.9062 160.23 27.5V13.8672H163.844V27.5391C163.844 28.4896 163.948 29.2773 164.156 29.9023C164.378 30.5143 164.671 31.0026 165.035 31.3672C165.413 31.7188 165.829 31.9661 166.285 32.1094C166.754 32.2526 167.236 32.3242 167.73 32.3242C169.267 32.3242 170.484 32.0312 171.383 31.4453C172.281 30.8464 172.926 30.0456 173.316 29.043C173.72 28.0273 173.922 26.901 173.922 25.6641Z" fill="white"/>
<circle cx="138.5" cy="32.5" r="2.5" fill="#EB5E28"/>
</svg>
