<svg width="14" height="14" viewBox="0 0 14 14" fill="none" xmlns="http://www.w3.org/2000/svg">
<path fill-rule="evenodd" clip-rule="evenodd" d="M6.99993 1.66667C6.0671 1.6665 5.15054 1.91099 4.34174 2.37575C3.53293 2.84051 2.86017 3.50928 2.3906 4.3153C1.92104 5.12133 1.67109 6.03641 1.6657 6.96922C1.66032 7.90204 1.89969 8.81995 2.35993 9.63133C2.671 9.22705 3.07088 8.89972 3.52865 8.67465C3.98642 8.44958 4.48982 8.3328 4.99993 8.33333H8.99993C9.51003 8.3328 10.0134 8.44958 10.4712 8.67465C10.929 8.89972 11.3289 9.22705 11.6399 9.63133C12.1002 8.81995 12.3395 7.90204 12.3341 6.96922C12.3288 6.03641 12.0788 5.12133 11.6092 4.3153C11.1397 3.50928 10.4669 2.84051 9.65812 2.37575C8.84931 1.91099 7.93275 1.6665 6.99993 1.66667ZM12.2953 11.0507C12.3788 10.9418 12.4588 10.8302 12.5353 10.716C13.2743 9.6178 13.6683 8.32375 13.6666 7C13.6666 3.318 10.6819 0.333334 6.99993 0.333334C3.31793 0.333334 0.333259 3.318 0.333259 7C0.331158 8.46451 0.813285 9.88862 1.70459 11.0507L1.70126 11.0627L1.93793 11.338C2.56318 12.069 3.33952 12.6557 4.21341 13.0578C5.08731 13.4598 6.03799 13.6675 6.99993 13.6667C7.14393 13.6667 7.28704 13.6622 7.42926 13.6533C8.63219 13.5775 9.79171 13.1753 10.7833 12.49C11.2575 12.1629 11.6873 11.7756 12.0619 11.338L12.2986 11.0627L12.2953 11.0507ZM6.99993 3C6.46949 3 5.96078 3.21071 5.58571 3.58579C5.21064 3.96086 4.99993 4.46957 4.99993 5C4.99993 5.53043 5.21064 6.03914 5.58571 6.41421C5.96078 6.78929 6.46949 7 6.99993 7C7.53036 7 8.03907 6.78929 8.41414 6.41421C8.78921 6.03914 8.99993 5.53043 8.99993 5C8.99993 4.46957 8.78921 3.96086 8.41414 3.58579C8.03907 3.21071 7.53036 3 6.99993 3Z" fill="#FFFCF2"/>
</svg>
