<svg width="16" height="16" viewBox="0 0 16 16" fill="none" xmlns="http://www.w3.org/2000/svg">
<path d="M14.6089 3.95401C14.5634 3.28934 14.2788 2.66361 13.8077 2.19252C13.3366 1.72142 12.7109 1.43683 12.0462 1.39135C11.2424 1.32807 10.4354 1.31694 9.6302 1.35801L14.6429 6.37001C14.6837 5.56479 14.6724 4.75777 14.6089 3.95401ZM1.39153 12.046C1.43701 12.7107 1.72161 13.3364 2.1927 13.8075C2.6638 14.2786 3.28952 14.5632 3.9542 14.6087C4.6662 14.6627 5.4962 14.6887 6.37086 14.642L1.35753 9.62868C1.31086 10.504 1.33753 11.334 1.39153 12.046Z" fill="#FFFCF2"/>
<path fill-rule="evenodd" clip-rule="evenodd" d="M1.48145 8.33932C1.72745 6.61066 2.32278 4.85132 3.58745 3.58732C4.85145 2.32266 6.61145 1.72732 8.33945 1.48132L14.5188 7.66066C14.2728 9.38866 13.6774 11.1487 12.4128 12.4127C11.1488 13.6773 9.38945 14.2727 7.66078 14.5187L1.48145 8.33932ZM7.96145 5.43999C8.00788 5.39353 8.06301 5.35667 8.1237 5.33152C8.18438 5.30637 8.24942 5.29343 8.31511 5.29343C8.3808 5.29343 8.44584 5.30637 8.50653 5.33152C8.56721 5.35667 8.62235 5.39353 8.66878 5.43999L9.26078 6.03199L9.85345 5.43999C9.89922 5.39087 9.95442 5.35146 10.0158 5.32414C10.0771 5.29681 10.1433 5.28211 10.2104 5.28093C10.2776 5.27974 10.3443 5.29209 10.4065 5.31724C10.4688 5.34239 10.5253 5.37982 10.5728 5.4273C10.6203 5.47478 10.6577 5.53133 10.6829 5.59359C10.708 5.65585 10.7204 5.72254 10.7192 5.78967C10.718 5.85681 10.7033 5.92302 10.676 5.98435C10.6486 6.04568 10.6092 6.10088 10.5601 6.14666L9.96811 6.73932L10.5601 7.33132C10.6092 7.3771 10.6486 7.4323 10.676 7.49363C10.7033 7.55496 10.718 7.62117 10.7192 7.68831C10.7204 7.75544 10.708 7.82213 10.6829 7.88439C10.6577 7.94665 10.6203 8.0032 10.5728 8.05068C10.5253 8.09816 10.4688 8.13559 10.4065 8.16074C10.3443 8.18589 10.2776 8.19824 10.2104 8.19705C10.1433 8.19587 10.0771 8.18117 10.0158 8.15384C9.95442 8.12652 9.89922 8.08711 9.85345 8.03799L9.26078 7.44599L8.70745 7.99999L9.29945 8.59199C9.38777 8.68677 9.43585 8.81214 9.43356 8.94167C9.43128 9.07121 9.3788 9.1948 9.28719 9.2864C9.19558 9.37801 9.07199 9.43049 8.94246 9.43277C8.81293 9.43506 8.68756 9.38698 8.59278 9.29866L8.00011 8.70799L7.44678 9.26132L8.03878 9.85399C8.08651 9.90014 8.12458 9.95533 8.15075 10.0163C8.17693 10.0774 8.19069 10.143 8.19123 10.2094C8.19178 10.2758 8.1791 10.3416 8.15393 10.403C8.12876 10.4645 8.09161 10.5203 8.04464 10.5672C7.99767 10.6141 7.94183 10.6512 7.88037 10.6763C7.81891 10.7014 7.75306 10.7141 7.68667 10.7134C7.62028 10.7128 7.55468 10.699 7.49369 10.6728C7.4327 10.6466 7.37755 10.6084 7.33145 10.5607L6.73945 9.96866L6.14745 10.5607C6.05266 10.649 5.9273 10.6971 5.79776 10.6948C5.66823 10.6925 5.54464 10.64 5.45303 10.5484C5.36142 10.4568 5.30895 10.3332 5.30666 10.2037C5.30438 10.0741 5.35246 9.94877 5.44078 9.85399L6.03211 9.26132L5.44011 8.66932C5.39099 8.62355 5.35159 8.56835 5.32426 8.50702C5.29693 8.44568 5.28224 8.37947 5.28105 8.31234C5.27987 8.2452 5.29222 8.17852 5.31736 8.11626C5.34251 8.054 5.37994 7.99744 5.42742 7.94996C5.4749 7.90249 5.53146 7.86506 5.59371 7.83991C5.65597 7.81476 5.72266 7.80241 5.78979 7.8036C5.85693 7.80478 5.92314 7.81947 5.98447 7.8468C6.0458 7.87413 6.101 7.91353 6.14678 7.96266L6.73945 8.55466L7.29278 8.00132L6.70078 7.40866C6.60974 7.31431 6.5594 7.18799 6.56061 7.05689C6.56181 6.92579 6.61445 6.80041 6.7072 6.70775C6.79995 6.61509 6.92538 6.56256 7.05648 6.56148C7.18758 6.56041 7.31385 6.61087 7.40811 6.70199L8.00011 7.29332L8.55345 6.73999L7.96211 6.14799C7.86848 6.05424 7.81589 5.92716 7.81589 5.79466C7.81589 5.66216 7.86848 5.53507 7.96211 5.44132" fill="#FFFCF2"/>
</svg>
