<svg width="119" height="119" viewBox="0 0 119 119" fill="none" xmlns="http://www.w3.org/2000/svg">
<path d="M105.145 36.0007L102.718 31.7891C100.882 28.604 99.9649 27.0114 98.4034 26.3763C96.8418 25.7413 95.0758 26.2424 91.5441 27.2446L85.5448 28.9344C83.29 29.4544 80.9241 29.1594 78.8655 28.1016L77.2091 27.146C75.4435 26.0152 74.0855 24.3479 73.3338 22.3882L71.6921 17.4844C70.6124 14.2393 70.0726 12.6168 68.7873 11.6887C67.5026 10.7606 65.7955 10.7606 62.3814 10.7606H56.9003C53.4867 10.7606 51.7796 10.7606 50.4944 11.6887C49.2094 12.6168 48.6696 14.2393 47.5901 17.4844L45.9481 22.3882C45.1964 24.3479 43.8385 26.0152 42.073 27.146L40.4166 28.1016C38.3578 29.1594 35.9921 29.4544 33.7373 28.9344L27.7378 27.2446C24.206 26.2424 22.4401 25.7413 20.8787 26.3763C19.3173 27.0114 18.3996 28.604 16.5642 31.7891L14.1375 36.0007C12.4171 38.9864 11.5568 40.4792 11.7238 42.0684C11.8907 43.6576 13.0423 44.9382 15.3454 47.4995L20.4147 53.1668C21.6537 54.7352 22.5334 57.4689 22.5334 59.9268C22.5334 62.3856 21.654 65.1183 20.4149 66.6872L15.3454 72.3546C13.0423 74.9162 11.8908 76.1965 11.7238 77.7861C11.5568 79.3751 12.4171 80.8678 14.1375 83.8532L16.5642 88.0648C18.3995 91.2498 19.3173 92.8429 20.8787 93.4776C22.4401 94.1128 24.2061 93.6118 27.7379 92.6093L33.7371 90.9195C35.9923 90.3993 38.3584 90.6948 40.4175 91.7528L42.0736 92.7086C43.8387 93.8395 45.1964 95.5062 45.9479 97.466L47.5901 102.37C48.6696 105.615 49.2094 107.238 50.4944 108.166C51.7796 109.094 53.4867 109.094 56.9003 109.094H62.3814C65.7955 109.094 67.5026 109.094 68.7873 108.166C70.0726 107.238 70.6124 105.615 71.6921 102.37L73.3343 97.466C74.0855 95.5062 75.443 93.8395 77.2086 92.7086L78.8645 91.7528C80.9236 90.6948 83.2895 90.3993 85.5448 90.9195L91.5441 92.6093C95.0758 93.6118 96.8418 94.1128 98.4034 93.4776C99.9649 92.8429 100.882 91.2498 102.718 88.0648L105.145 83.8532C106.865 80.8678 107.725 79.3751 107.558 77.7861C107.391 76.1965 106.24 74.9162 103.937 72.3546L98.867 66.6872C97.628 65.1183 96.7484 62.3856 96.7484 59.9268C96.7484 57.4689 97.6285 54.7352 98.867 53.1668L103.937 47.4995C106.24 44.9382 107.391 43.6576 107.558 42.0684C107.725 40.4792 106.865 38.9864 105.145 36.0007Z" stroke="white" stroke-width="8.5" stroke-linecap="round"/>
<path d="M42.1252 79.5556C45.5602 73.6177 51.9802 69.6224 59.3336 69.6224C66.6869 69.6224 73.1071 73.6177 76.5419 79.5556M69.1669 47.5972C69.1669 53.0282 64.7645 57.4306 59.3336 57.4306C53.9031 57.4306 49.5002 53.0282 49.5002 47.5972C49.5002 42.1664 53.9031 37.7639 59.3336 37.7639C64.7645 37.7639 69.1669 42.1664 69.1669 47.5972Z" stroke="white" stroke-width="8.5" stroke-linecap="round"/>
</svg>
