<svg width="16" height="16" viewBox="0 0 16 16" fill="none" xmlns="http://www.w3.org/2000/svg">
<path d="M13.54 10.96L9.69329 4.31332C9.5628 4.0866 9.38882 3.88789 9.18134 3.72859C8.97385 3.56928 8.73695 3.45252 8.48423 3.385C8.23151 3.31749 7.96794 3.30054 7.70865 3.33515C7.44936 3.36975 7.19946 3.45522 6.97329 3.58665C6.66662 3.75999 6.41996 3.99999 6.23996 4.31332L2.39996 10.96C2.26821 11.185 2.18247 11.4339 2.1477 11.6923C2.11294 11.9507 2.12985 12.2134 2.19746 12.4652C2.26506 12.717 2.38201 12.9529 2.54152 13.1592C2.70102 13.3654 2.89991 13.5379 3.12662 13.6667C3.42662 13.8533 3.76662 13.9467 4.11996 13.9467H11.82C12.0817 13.9458 12.3408 13.8934 12.5823 13.7924C12.8238 13.6914 13.043 13.5438 13.2275 13.3581C13.412 13.1724 13.5581 12.9522 13.6574 12.71C13.7568 12.4678 13.8075 12.2084 13.8066 11.9467C13.8066 11.6 13.7133 11.26 13.54 10.96ZM3.57996 11.62L7.40662 4.97999C7.58662 4.66665 7.99996 4.54665 8.30662 4.73332C8.41329 4.78665 8.49996 4.87332 8.55996 4.97999L12.3866 11.62C12.5666 11.94 12.46 12.3333 12.14 12.5267C12.04 12.5867 11.9266 12.62 11.8133 12.62H4.13996C3.77329 12.6133 3.47329 12.3133 3.47996 11.9467C3.47996 11.8333 3.50662 11.72 3.56662 11.62H3.57996ZM7.97996 8.96665C7.24662 8.96665 6.66662 8.37332 6.66662 7.63999C6.66662 6.89999 7.24662 6.30665 7.97996 6.30665C8.33358 6.30665 8.67272 6.44713 8.92277 6.69718C9.17281 6.94723 9.31329 7.28636 9.31329 7.63999C9.31329 8.37332 8.71329 8.96665 7.96662 8.96665H7.97996ZM6.30662 11.9533C5.57329 11.9533 4.97996 11.36 4.97996 10.6267C4.97996 9.89332 5.57329 9.29999 6.30662 9.29999C7.03996 9.29999 7.63996 9.89332 7.63996 10.6267C7.63996 11.36 7.03996 11.9533 6.30662 11.9533ZM9.62662 11.9533C9.27531 11.9516 8.93888 11.8112 8.69046 11.5628C8.44205 11.3144 8.30171 10.978 8.29996 10.6267C8.30171 10.2753 8.44205 9.93891 8.69046 9.69049C8.93888 9.44208 9.27531 9.30174 9.62662 9.29999C10.36 9.29999 10.96 9.89332 10.96 10.6267C10.96 11.36 10.36 11.9533 9.62662 11.9533Z" fill="#FFFCF2"/>
</svg>
