<svg width="20" height="16" viewBox="0 0 20 16" fill="none" xmlns="http://www.w3.org/2000/svg">
<path d="M10.0064 3.5C11.3877 3.5 12.5064 2.38125 12.5064 1H14.1783C14.7096 1 15.2189 1.20938 15.5939 1.58438L19.3002 5.29375C19.6908 5.68437 19.6908 6.31875 19.3002 6.70937L17.7158 8.29375C17.3252 8.68437 16.6908 8.68437 16.3002 8.29375L15.0064 7V14C15.0064 15.1031 14.1096 16 13.0064 16H7.00645C5.90332 16 5.00645 15.1031 5.00645 14V7L3.7127 8.29375C3.32207 8.68437 2.6877 8.68437 2.29707 8.29375L0.71582 6.70625C0.325195 6.31563 0.325195 5.68125 0.71582 5.29063L4.42207 1.58438C4.79707 1.20938 5.30645 1 5.8377 1H7.50957C7.50957 2.38125 8.62832 3.5 10.0096 3.5H10.0064Z" fill="#FFFCF2"/>
</svg>
