<svg width="22" height="22" viewBox="0 0 22 22" fill="none" xmlns="http://www.w3.org/2000/svg">
<g clip-path="url(#clip0_6_6)">
<path fill-rule="evenodd" clip-rule="evenodd" d="M18.1162 2.47517C17.6391 2.19741 17.1027 2.01652 16.5348 1.93531L15.0263 3.44381L13.8415 2.25908C13.3675 2.43787 12.9 2.68155 12.4526 2.9915L13.9656 4.50447L12.1978 6.27224L10.685 4.75941C10.3751 5.20684 10.1315 5.67444 9.95278 6.14852L11.1372 7.3329L9.62945 8.84061C9.71066 9.40854 9.89155 9.94495 10.1693 10.4221L12.1978 8.39356L13.6121 9.80777L11.5838 11.8361C12.061 12.1137 12.5976 12.2945 13.1657 12.3755L14.6727 10.8684L15.8562 12.0519C16.3303 11.8732 16.7979 11.6296 17.2453 11.3197L15.7334 9.80777L17.5011 8.04001L19.0132 9.55211C19.3232 9.10476 19.5669 8.63723 19.7457 8.16321L18.5618 6.97935L20.0697 5.4715C19.9886 4.90343 19.8079 4.36688 19.5302 3.88962L17.5011 5.91869L16.0869 4.50447L18.1162 2.47517ZM19.976 2.02877C17.4556 -0.491597 13.1748 -0.00892353 10.43 2.73588C8.90031 4.26558 8.07321 6.27235 8.07697 8.18559C7.90268 9.36625 7.52498 10.927 7.12858 12.2643C6.92726 12.9435 6.72505 13.5517 6.54778 14.0123C6.45882 14.2434 6.38004 14.4271 6.31457 14.5599C6.2728 14.6446 6.24622 14.688 6.23615 14.7045C6.23507 14.7063 6.23348 14.7089 6.23348 14.7089L6.23168 14.7121L4.7667 16.1736C4.74148 16.1753 4.71609 16.178 4.69055 16.1816L3.86559 16.2995C3.6514 16.3301 3.4529 16.4293 3.29991 16.5823L0.706955 19.1752C0.316431 19.5658 0.316431 20.1989 0.706955 20.5895L1.41406 21.2966C1.80459 21.6871 2.43775 21.6871 2.82828 21.2966L5.42123 18.7036C5.57422 18.5506 5.67347 18.3521 5.70407 18.1379L5.82192 17.313C5.82583 17.2856 5.82861 17.2584 5.83029 17.2313L7.29217 15.7729C7.29217 15.7729 7.2953 15.7712 7.30001 15.7683C7.31647 15.7583 7.3599 15.7317 7.44461 15.6899C7.57737 15.6245 7.76108 15.5457 7.99222 15.4567C8.45278 15.2794 9.06098 15.0772 9.74017 14.8759C11.077 14.4797 12.6369 14.1022 13.8173 13.9278C15.7311 13.932 17.7387 13.1049 19.2689 11.5747C22.0137 8.82991 22.4963 4.54914 19.976 2.02877ZM8.56673 12.6906C8.69714 12.2506 8.82658 11.7841 8.9485 11.3113C9.16482 11.6561 9.42254 11.9814 9.72291 12.2818C10.0232 12.5821 10.3485 12.8397 10.6931 13.056C10.2203 13.1779 9.75383 13.3074 9.31389 13.4378C8.92946 13.5517 8.56128 13.6676 8.22322 13.7813C8.33691 13.4432 8.45278 13.075 8.56673 12.6906ZM15.0263 5.56513L13.2585 7.3329L14.6727 8.74711L16.4405 6.97935L15.0263 5.56513Z" fill="#FFFCF2"/>
</g>
<defs>
<clipPath id="clip0_6_6">
<rect width="22" height="22" fill="white"/>
</clipPath>
</defs>
</svg>
