<svg width="22" height="22" viewBox="0 0 22 22" fill="none" xmlns="http://www.w3.org/2000/svg">
<path fill-rule="evenodd" clip-rule="evenodd" d="M18.1163 2.47517C17.6392 2.19741 17.1028 2.01652 16.5349 1.93531L15.0264 3.44381L13.8416 2.25908C13.3676 2.43787 12.9001 2.68155 12.4527 2.9915L13.9657 4.50447L12.1979 6.27224L10.6851 4.75941C10.3752 5.20684 10.1316 5.67444 9.9529 6.14852L11.1373 7.3329L9.62957 8.84061C9.71078 9.40854 9.89167 9.94495 10.1694 10.4221L12.1979 8.39356L13.6122 9.80777L11.5839 11.8361C12.0611 12.1137 12.5977 12.2945 13.1658 12.3755L14.6728 10.8684L15.8563 12.0519C16.3304 11.8732 16.798 11.6296 17.2454 11.3197L15.7335 9.80777L17.5012 8.04001L19.0133 9.55211C19.3233 9.10476 19.567 8.63723 19.7458 8.16321L18.5619 6.97935L20.0698 5.4715C19.9887 4.90343 19.808 4.36688 19.5303 3.88962L17.5012 5.91869L16.087 4.50447L18.1163 2.47517ZM19.9761 2.02877C17.4557 -0.491597 13.1749 -0.00892353 10.4301 2.73588C8.90043 4.26558 8.07333 6.27235 8.07709 8.18559C7.9028 9.36625 7.5251 10.927 7.1287 12.2643C6.92738 12.9435 6.72517 13.5517 6.5479 14.0123C6.45894 14.2434 6.38016 14.4271 6.31469 14.5599C6.27292 14.6446 6.24634 14.688 6.23627 14.7045C6.23519 14.7063 6.2343 14.7077 6.2336 14.7089C6.23263 14.7105 6.23203 14.7115 6.2318 14.7121L4.76682 16.1736C4.7416 16.1753 4.71621 16.178 4.69067 16.1816L3.86571 16.2995C3.65152 16.3301 3.45302 16.4293 3.30003 16.5823L0.707078 19.1752C0.316554 19.5658 0.316554 20.1989 0.707078 20.5895L1.41418 21.2966C1.80471 21.6871 2.43787 21.6871 2.8284 21.2966L5.42135 18.7036C5.57434 18.5506 5.67359 18.3521 5.70419 18.1379L5.82204 17.313C5.82595 17.2856 5.82873 17.2584 5.83041 17.2313L7.29229 15.7729C7.29292 15.7727 7.29542 15.7712 7.30013 15.7683C7.31659 15.7583 7.36002 15.7317 7.44473 15.6899C7.57749 15.6245 7.7612 15.5457 7.99234 15.4567C8.4529 15.2794 9.0611 15.0772 9.74029 14.8759C11.0771 14.4797 12.637 14.1022 13.8174 13.9278C15.7312 13.932 17.7388 13.1049 19.269 11.5747C22.0138 8.82991 22.4964 4.54914 19.9761 2.02877ZM8.56685 12.6906C8.69726 12.2506 8.8267 11.7841 8.94862 11.3113C9.16494 11.6561 9.42266 11.9814 9.72303 12.2818C10.0233 12.5821 10.3486 12.8397 10.6932 13.056C10.2204 13.1779 9.75395 13.3074 9.31401 13.4378C8.92958 13.5517 8.5614 13.6676 8.22334 13.7813C8.33703 13.4432 8.4529 13.075 8.56685 12.6906ZM15.0264 5.56513L13.2586 7.3329L14.6728 8.74711L16.4406 6.97935L15.0264 5.56513Z" fill="#26272B"/>
</svg>
