<svg width="16" height="16" viewBox="0 0 16 16" fill="none" xmlns="http://www.w3.org/2000/svg">
<path d="M8.0115 8.662C9.2935 8.69266 10.5242 9.06199 11.5868 9.70866C9.66083 11.732 6.92817 13.1353 4.1435 13.4387C3.55668 13.0223 3.04112 12.5138 2.61683 11.9327C4.66817 11.6127 6.5415 10.5327 7.8375 8.884L8.0115 8.662ZM13.6268 11.5767C13.0253 12.5241 12.194 13.3041 11.2104 13.8443C10.2267 14.3845 9.12243 14.6674 8.00017 14.6667C7.17119 14.6673 6.34936 14.5133 5.57683 14.2127C8.17883 13.632 10.6282 12.2087 12.4102 10.2927C12.8674 10.6685 13.2761 11.0998 13.6268 11.5767ZM14.4162 7.57199L14.4175 7.57333L14.6642 7.82199C14.6659 7.88111 14.6668 7.94044 14.6668 8C14.6673 8.89562 14.4872 9.78215 14.1375 10.6067C13.3917 9.71099 12.4632 8.98503 11.414 8.47741C10.3648 7.96979 9.21932 7.69223 8.05417 7.66333C7.50831 6.71304 7.22034 5.63657 7.21883 4.54066C9.91774 4.59155 12.4941 5.67665 14.4162 7.57199ZM7.2975 3.542C7.37679 3.04444 7.51579 2.55826 7.7115 2.09399L8.0315 1.33333C11.0875 1.34733 13.6582 3.41799 14.4302 6.23199C12.4261 4.55266 9.91079 3.60415 7.29683 3.542M7.0515 8.266C6.43928 9.04507 5.67285 9.68941 4.80017 10.1587C3.75124 7.64767 3.67519 4.83602 4.58683 2.27199C5.30058 1.84483 6.08863 1.55643 6.9095 1.42199L6.7895 1.70599C6.35699 2.73275 6.16591 3.84508 6.23098 4.95732C6.29605 6.06955 6.61554 7.15201 7.16483 8.12133L7.0515 8.266ZM3.2395 3.33333C2.01606 4.57827 1.33143 6.25452 1.3335 8C1.3335 9.078 1.5895 10.0967 2.04417 10.998C2.68017 10.936 3.2995 10.7913 3.88883 10.5713C2.92544 8.28329 2.69962 5.75176 3.24283 3.32933L3.2395 3.33333Z" fill="#FFFCF2"/>
</svg>
